<svg width="24" height="24" viewBox="0 0 24 24" fill="none" xmlns="http://www.w3.org/2000/svg">
<path d="M9.125 21.1L0.7 12.7C0.6 12.6 0.529 12.4917 0.487 12.375C0.445 12.2583 0.424333 12.1333 0.425 12C0.425 11.8667 0.446 11.7417 0.488 11.625C0.53 11.5083 0.600667 11.4 0.7 11.3L9.125 2.87499C9.35833 2.64166 9.65 2.52499 10 2.52499C10.35 2.52499 10.65 2.64999 10.9 2.89999C11.15 3.14999 11.275 3.44166 11.275 3.77499C11.275 4.10833 11.15 4.39999 10.9 4.64999L3.55 12L10.9 19.35C11.1333 19.5833 11.25 19.871 11.25 20.213C11.25 20.555 11.125 20.8507 10.875 21.1C10.625 21.35 10.3333 21.475 10 21.475C9.66667 21.475 9.375 21.35 9.125 21.1Z" fill="white"/>
</svg>
