<svg width="20" height="20" viewBox="0 0 20 20" fill="none" xmlns="http://www.w3.org/2000/svg">
<path d="M10 11.6667C9.76389 11.6667 9.56611 11.5867 9.40667 11.4267C9.24667 11.2672 9.16667 11.0694 9.16667 10.8333C9.16667 10.5972 9.24667 10.3992 9.40667 10.2392C9.56611 10.0797 9.76389 9.99999 10 9.99999C10.2361 9.99999 10.4342 10.0797 10.5942 10.2392C10.7536 10.3992 10.8333 10.5972 10.8333 10.8333C10.8333 11.0694 10.7536 11.2672 10.5942 11.4267C10.4342 11.5867 10.2361 11.6667 10 11.6667ZM6.66667 11.6667C6.43056 11.6667 6.2325 11.5867 6.0725 11.4267C5.91306 11.2672 5.83333 11.0694 5.83333 10.8333C5.83333 10.5972 5.91306 10.3992 6.0725 10.2392C6.2325 10.0797 6.43056 9.99999 6.66667 9.99999C6.90278 9.99999 7.10083 10.0797 7.26083 10.2392C7.42028 10.3992 7.5 10.5972 7.5 10.8333C7.5 11.0694 7.42028 11.2672 7.26083 11.4267C7.10083 11.5867 6.90278 11.6667 6.66667 11.6667ZM13.3333 11.6667C13.0972 11.6667 12.8994 11.5867 12.74 11.4267C12.58 11.2672 12.5 11.0694 12.5 10.8333C12.5 10.5972 12.58 10.3992 12.74 10.2392C12.8994 10.0797 13.0972 9.99999 13.3333 9.99999C13.5694 9.99999 13.7672 10.0797 13.9267 10.2392C14.0867 10.3992 14.1667 10.5972 14.1667 10.8333C14.1667 11.0694 14.0867 11.2672 13.9267 11.4267C13.7672 11.5867 13.5694 11.6667 13.3333 11.6667ZM10 15C9.76389 15 9.56611 14.92 9.40667 14.76C9.24667 14.6005 9.16667 14.4028 9.16667 14.1667C9.16667 13.9305 9.24667 13.7328 9.40667 13.5733C9.56611 13.4133 9.76389 13.3333 10 13.3333C10.2361 13.3333 10.4342 13.4133 10.5942 13.5733C10.7536 13.7328 10.8333 13.9305 10.8333 14.1667C10.8333 14.4028 10.7536 14.6005 10.5942 14.76C10.4342 14.92 10.2361 15 10 15ZM6.66667 15C6.43056 15 6.2325 14.92 6.0725 14.76C5.91306 14.6005 5.83333 14.4028 5.83333 14.1667C5.83333 13.9305 5.91306 13.7328 6.0725 13.5733C6.2325 13.4133 6.43056 13.3333 6.66667 13.3333C6.90278 13.3333 7.10083 13.4133 7.26083 13.5733C7.42028 13.7328 7.5 13.9305 7.5 14.1667C7.5 14.4028 7.42028 14.6005 7.26083 14.76C7.10083 14.92 6.90278 15 6.66667 15ZM13.3333 15C13.0972 15 12.8994 14.92 12.74 14.76C12.58 14.6005 12.5 14.4028 12.5 14.1667C12.5 13.9305 12.58 13.7328 12.74 13.5733C12.8994 13.4133 13.0972 13.3333 13.3333 13.3333C13.5694 13.3333 13.7672 13.4133 13.9267 13.5733C14.0867 13.7328 14.1667 13.9305 14.1667 14.1667C14.1667 14.4028 14.0867 14.6005 13.9267 14.76C13.7672 14.92 13.5694 15 13.3333 15ZM4.16667 18.3333C3.70833 18.3333 3.31583 18.1703 2.98917 17.8442C2.66306 17.5175 2.5 17.125 2.5 16.6667V4.99999C2.5 4.54166 2.66306 4.14943 2.98917 3.82332C3.31583 3.49666 3.70833 3.33332 4.16667 3.33332H5V2.49999C5 2.26388 5.07972 2.06582 5.23917 1.90582C5.39917 1.74638 5.59722 1.66666 5.83333 1.66666C6.06944 1.66666 6.2675 1.74638 6.4275 1.90582C6.58694 2.06582 6.66667 2.26388 6.66667 2.49999V3.33332H13.3333V2.49999C13.3333 2.26388 13.4133 2.06582 13.5733 1.90582C13.7328 1.74638 13.9306 1.66666 14.1667 1.66666C14.4028 1.66666 14.6006 1.74638 14.76 1.90582C14.92 2.06582 15 2.26388 15 2.49999V3.33332H15.8333C16.2917 3.33332 16.6842 3.49666 17.0108 3.82332C17.3369 4.14943 17.5 4.54166 17.5 4.99999V16.6667C17.5 17.125 17.3369 17.5175 17.0108 17.8442C16.6842 18.1703 16.2917 18.3333 15.8333 18.3333H4.16667ZM4.16667 16.6667H15.8333V8.33332H4.16667V16.6667ZM4.16667 6.66666H15.8333V4.99999H4.16667V6.66666Z" fill="white" fill-opacity="0.68"/>
</svg>
