<svg width="18" height="18" viewBox="0 0 18 18" fill="none" xmlns="http://www.w3.org/2000/svg">
<g clip-path="url(#clip0_244_16)">
<path d="M9 0C6.61305 0 4.32387 0.948211 2.63604 2.63604C0.948211 4.32387 0 6.61305 0 9C0 11.3869 0.948211 13.6761 2.63604 15.364C4.32387 17.0518 6.61305 18 9 18C11.3869 18 13.6761 17.0518 15.364 15.364C17.0518 13.6761 18 11.3869 18 9C18 6.61305 17.0518 4.32387 15.364 2.63604C13.6761 0.948211 11.3869 0 9 0ZM11.3723 16.3373H11.3025C11.2501 16.3402 11.1977 16.3324 11.1484 16.3144C11.0991 16.2963 11.0541 16.2684 11.016 16.2322C10.9808 16.1951 10.9534 16.1512 10.9354 16.1033C10.9174 16.0554 10.9091 16.0044 10.911 15.9532V14.8987C10.9155 14.5485 10.9185 14.1937 10.9185 13.8367C10.9173 13.5757 10.8791 13.3161 10.8052 13.0657C10.7352 12.8126 10.5942 12.5849 10.3987 12.4095C10.9215 12.359 11.4354 12.2403 11.9272 12.0563C12.3422 11.8985 12.7175 11.6517 13.0267 11.3333C13.332 11.013 13.5592 10.626 13.6905 10.2037C13.8502 9.68664 13.9261 9.14734 13.9155 8.60625C13.9184 8.22846 13.8523 7.8533 13.7205 7.49925C13.5865 7.1424 13.384 6.81524 13.1243 6.53625C13.1803 6.39554 13.2211 6.24919 13.2457 6.09975C13.2705 5.94975 13.2833 5.79825 13.2833 5.64675C13.2833 5.45175 13.2608 5.25675 13.2158 5.067C13.1749 4.87238 13.1195 4.68109 13.05 4.49475C13.0235 4.48441 12.9952 4.47931 12.9667 4.47975H12.8843C12.7118 4.48125 12.5422 4.50975 12.3787 4.563C12.1986 4.61557 12.0225 4.68073 11.8515 4.758C11.6815 4.83421 11.516 4.9201 11.3557 5.01525C11.1945 5.1105 11.052 5.202 10.926 5.28675C9.66429 4.9351 8.33046 4.9351 7.06875 5.28675C6.92804 5.19268 6.785 5.10215 6.63975 5.01525C6.47727 4.91931 6.30894 4.83364 6.13575 4.75875C5.96525 4.67892 5.78838 4.61344 5.607 4.563C5.44672 4.51005 5.27928 4.48198 5.1105 4.47975H5.028C4.99979 4.47935 4.97177 4.48445 4.9455 4.49475C4.87505 4.68135 4.81741 4.87255 4.773 5.067C4.7325 5.2575 4.713 5.45175 4.71225 5.64675C4.71225 5.79825 4.725 5.94975 4.7505 6.09975C4.77525 6.249 4.815 6.39525 4.8705 6.53625C4.61144 6.81561 4.40964 7.14303 4.2765 7.5C4.14396 7.85393 4.07711 8.22907 4.07925 8.607C4.06876 9.14518 4.14266 9.68169 4.29825 10.197C4.434 10.6192 4.6605 11.007 4.96125 11.334C5.2725 11.6505 5.6475 11.8965 6.06075 12.057C6.5505 12.2445 7.0635 12.3645 7.5855 12.414C7.43975 12.5461 7.32413 12.708 7.2465 12.8887C7.17265 13.0675 7.12223 13.2551 7.0965 13.4468C6.82131 13.5785 6.52035 13.6477 6.21525 13.6492C5.93191 13.6606 5.65226 13.5818 5.4165 13.4243C5.19033 13.2566 4.99879 13.0468 4.8525 12.8063C4.78703 12.7052 4.71381 12.6094 4.6335 12.5198C4.54878 12.4254 4.45537 12.3393 4.3545 12.2625C4.25508 12.1882 4.1461 12.1277 4.0305 12.0825C3.91676 12.0326 3.79394 12.0068 3.66975 12.0068C3.63975 12.0075 3.60975 12.0105 3.57975 12.0142C3.53878 12.0141 3.49796 12.0192 3.45825 12.0292C3.42335 12.0384 3.39034 12.0536 3.36075 12.0743C3.3473 12.0817 3.33604 12.0925 3.32814 12.1057C3.32024 12.1189 3.31596 12.1339 3.31575 12.1492C3.3189 12.1853 3.32994 12.2203 3.34808 12.2517C3.36622 12.283 3.39103 12.31 3.42075 12.3307C3.4905 12.3862 3.54825 12.429 3.59475 12.459L3.61725 12.4747C3.717 12.552 3.813 12.6352 3.90375 12.7245C3.98775 12.798 4.0635 12.8812 4.12875 12.972C4.19625 13.0612 4.25475 13.1565 4.302 13.2578C4.35675 13.3583 4.4145 13.4737 4.47525 13.605C4.61625 13.9605 4.86675 14.2612 5.19075 14.4637C5.5305 14.646 5.9115 14.7367 6.29775 14.727C6.42825 14.727 6.5595 14.7195 6.68925 14.7045C6.81825 14.6835 6.9465 14.6617 7.0755 14.6362V15.9435C7.07783 15.9962 7.06902 16.0488 7.04963 16.0979C7.03025 16.147 7.00073 16.1914 6.963 16.2283C6.92527 16.2651 6.88018 16.2936 6.83068 16.3119C6.78119 16.3302 6.72839 16.3378 6.67575 16.3342H6.62925C4.88028 15.7692 3.3905 14.5984 2.42818 13.0325C1.46585 11.4666 1.09422 9.60852 1.38021 7.79293C1.6662 5.97735 2.59101 4.32353 3.9881 3.12927C5.3852 1.93501 7.16278 1.2788 9.00075 1.2788C10.8387 1.2788 12.6163 1.93501 14.0134 3.12927C15.4105 4.32353 16.3353 5.97735 16.6213 7.79293C16.9073 9.60852 16.5356 11.4666 15.5733 13.0325C14.611 14.5984 13.1212 15.7692 11.3723 16.3342V16.3373Z" fill="white"/>
</g>
<defs>
<clipPath id="clip0_244_16">
<rect width="18" height="18" fill="white"/>
</clipPath>
</defs>
</svg>
