<svg xmlns="http://www.w3.org/2000/svg" width="156" height="39"><path fill="#fff" d="m42.536 32-3.564-21.87h2.538l2.349 15.714 2.943-15.633h2.16l2.97 15.714 2.295-15.795h2.484L53.201 32h-2.214l-3.051-16.2L44.858 32h-2.322Zm14.856 0 4.644-21.87h2.943L69.649 32h-2.888l-1-5.508h-4.454L60.254 32h-2.862Zm4.32-7.695h3.645L63.52 14.45l-1.81 9.855ZM73.402 32V12.398h-3.7V10.13h10.342v2.268h-3.591V32h-3.051Zm14.231.243c-1.548 0-2.754-.324-3.618-.972-.846-.648-1.44-1.521-1.782-2.619-.324-1.098-.486-2.322-.486-3.672v-7.722c0-1.476.162-2.763.486-3.861.342-1.098.936-1.944 1.782-2.538.864-.612 2.07-.918 3.618-.918 1.368 0 2.448.252 3.24.756.81.504 1.386 1.224 1.728 2.16.36.936.54 2.061.54 3.375v1.728h-2.889v-1.539c0-.81-.045-1.521-.135-2.133-.072-.63-.288-1.116-.648-1.458-.36-.342-.963-.513-1.809-.513-.864 0-1.494.189-1.89.567-.396.36-.657.882-.783 1.566-.108.666-.162 1.449-.162 2.349v8.667c0 1.098.09 1.971.27 2.619.18.63.477 1.08.891 1.35.414.27.972.405 1.674.405.828 0 1.422-.18 1.782-.54.36-.378.585-.891.675-1.539.09-.648.135-1.404.135-2.268v-1.62h2.89v1.62c0 1.332-.163 2.511-.487 3.537-.324 1.008-.882 1.8-1.674 2.376-.792.558-1.908.837-3.348.837ZM96.048 32V10.13h3.05v9.45h5.617v-9.45h3.051V32h-3.051V21.767h-5.616V32h-3.051Zm15.134 0V10.13h3.051v19.683h5.589V32h-8.64Zm13.315 0v-7.722l-4.725-14.148h2.835l3.348 10.557 3.294-10.557h2.862l-4.698 14.148V32h-2.916Zm14.808.243c-1.26 0-2.313-.27-3.159-.81-.828-.54-1.458-1.287-1.89-2.241-.432-.954-.684-2.061-.756-3.321l2.7-.729c.054.774.171 1.521.351 2.241.198.72.513 1.314.945 1.782.432.45 1.035.675 1.809.675.792 0 1.386-.216 1.782-.648.414-.45.621-1.089.621-1.917 0-.99-.225-1.782-.675-2.376a12.17 12.17 0 0 0-1.701-1.836l-3.672-3.24c-.72-.63-1.251-1.314-1.593-2.052-.342-.756-.513-1.683-.513-2.781 0-1.602.459-2.844 1.377-3.726.918-.882 2.169-1.323 3.753-1.323.864 0 1.62.117 2.268.351.666.216 1.215.558 1.647 1.026.45.468.801 1.062 1.053 1.782.27.702.45 1.53.54 2.484l-2.592.702a10.478 10.478 0 0 0-.324-1.971c-.162-.612-.45-1.098-.864-1.458-.396-.378-.972-.567-1.728-.567s-1.35.207-1.782.621c-.414.396-.621.99-.621 1.782 0 .666.108 1.215.324 1.647.234.432.603.873 1.107 1.323l3.699 3.24c.828.72 1.557 1.584 2.187 2.592.63.99.945 2.169.945 3.537 0 1.08-.225 2.016-.675 2.808a4.555 4.555 0 0 1-1.863 1.782c-.774.414-1.674.621-2.7.621ZM149.313 32V12.398h-3.699V10.13h10.341v2.268h-3.591V32h-3.051ZM26.64 10.003l-4.477-.575 3.255-5.044c.192-.298.043-.839-.216-1.088-.304-.294-.64-.19-.833.106L20.545 9.22l-5.384-.691-4.657-7.93c-.26-.443-.706-.718-1.121-.548-.36.148-.563.725-.298 1.168l4.223 7.073-6.38-.835-3.526.027c-.89-.114-1.736.136-2.382.705C.362 8.767 0 9.596 0 10.522v21.773c0 .925.362 1.758 1.018 2.344.187.167.984.88 2.005.757.054-.006 1.884.16 3.904-.064l5.367-.597v3.272c0 .646.644.927 1.118.496l4.89-4.45 8.33-.947c1.223-.14 2.18-1.419 2.18-2.914V12.94c0-1.49-.954-2.78-2.171-2.937ZM6.439 32.06c.023.635.101 1.35.3 1.914-.57-.496-.903-1.67-1.165-3.303-.012-.076-.224 1.955.256 3.307-.579-.5-.918-1.87-1.184-3.516-.012-.076-.227 2.159.26 3.52-.588-.503-.933-1.79-1.203-3.45-.013-.076-.232 2.177.265 3.55-.599-.507-.95-1.804-1.224-3.478-.013-.078-.236 2.195.269 3.58-.609-.512-.965-2.005-1.245-3.692-.34 1.147.097 3.405.031 3.35-.28-.371-.501-.936-.685-1.638V10.842c.234-.89.527-1.556.928-1.885-.513 1.39-.287 3.685-.274 3.606.28-1.684.636-3.265 1.245-3.768-.505 1.377-.282 3.653-.27 3.576.276-1.67.626-2.963 1.225-3.463-.497 1.367-.278 3.623-.265 3.547.27-1.657.615-3.032 1.204-3.528-.488 1.356-.273 3.594-.261 3.517.266-1.643.605-2.914 1.184-3.407-.48 1.345-.268 3.564-.256 3.488.262-1.63.595-2.984 1.165-3.473-.156.44-.238.976-.277 1.493-.021.137-.029 21.443-.023 21.515ZM27.18 15.522v12.073c0 .89-.018 1.927-1.013 2.085-.257.04-14.944 1.447-14.944 1.447-1.312.11-2.4-.982-2.4-2.44V14.16c0-1.459 1.088-2.534 2.4-2.405 0 0 14.687 1.618 14.944 1.667 1.119.213 1.013 1.21 1.013 2.1Zm-4.443 6.272-5.854 4.096c-.41.286-.925-.04-.925-.59v-8.32c0-.552.515-.867.925-.571l5.854 4.22c.364.263.364.91 0 1.165Zm1.21-7.015c-.597 0-.596-.927 0-.927.598 0 .597.927 0 .927Zm2.68-.185c.26.492.2 1.219.175 1.76-.028.595-.955.597-.928 0 .018-.388.037-.804-.036-1.186-.054-.284-.405-.266-.656-.258-.598.02-.595-.907 0-.927.521-.018 1.181.11 1.445.611Z"/><path fill="#00E6BE" d="m22.737 21.794-5.854 4.096c-.41.286-.925-.04-.925-.59v-8.32c0-.552.515-.867.925-.571l5.854 4.22c.364.263.364.91 0 1.165Z"/></svg>