<svg width="156" height="39" viewBox="0 0 156 39" fill="none" xmlns="http://www.w3.org/2000/svg">
<path d="M42.536 32L38.972 10.13H41.51L43.859 25.844L46.802 10.211H48.962L51.932 25.925L54.227 10.13H56.711L53.201 32H50.987L47.936 15.8L44.858 32H42.536Z" fill="white"/>
<path d="M57.3919 32L62.0359 10.13H64.9789L69.6499 32H66.7609L65.7619 26.492H61.3069L60.2539 32H57.3919ZM61.7119 24.305H65.3569L63.5209 14.45L61.7119 24.305Z" fill="white"/>
<path d="M73.4019 32V12.398H69.7029V10.13H80.0439V12.398H76.4529V32H73.4019Z" fill="white"/>
<path d="M87.6332 32.243C86.0852 32.243 84.8792 31.919 84.0152 31.271C83.1692 30.623 82.5752 29.75 82.2332 28.652C81.9092 27.554 81.7472 26.33 81.7472 24.98V17.258C81.7472 15.782 81.9092 14.495 82.2332 13.397C82.5752 12.299 83.1692 11.453 84.0152 10.859C84.8792 10.247 86.0852 9.941 87.6332 9.941C89.0012 9.941 90.0812 10.193 90.8732 10.697C91.6832 11.201 92.2592 11.921 92.6012 12.857C92.9612 13.793 93.1412 14.918 93.1412 16.232V17.96H90.2522V16.421C90.2522 15.611 90.2072 14.9 90.1172 14.288C90.0452 13.658 89.8292 13.172 89.4692 12.83C89.1092 12.488 88.5062 12.317 87.6602 12.317C86.7962 12.317 86.1662 12.506 85.7702 12.884C85.3742 13.244 85.1132 13.766 84.9872 14.45C84.8792 15.116 84.8252 15.899 84.8252 16.799V25.466C84.8252 26.564 84.9152 27.437 85.0952 28.085C85.2752 28.715 85.5722 29.165 85.9862 29.435C86.4002 29.705 86.9582 29.84 87.6602 29.84C88.4882 29.84 89.0822 29.66 89.4422 29.3C89.8022 28.922 90.0272 28.409 90.1172 27.761C90.2072 27.113 90.2522 26.357 90.2522 25.493V23.873H93.1412V25.493C93.1412 26.825 92.9792 28.004 92.6552 29.03C92.3312 30.038 91.7732 30.83 90.9812 31.406C90.1892 31.964 89.0732 32.243 87.6332 32.243Z" fill="white"/>
<path d="M96.0477 32V10.13H99.0987V19.58H104.715V10.13H107.766V32H104.715V21.767H99.0987V32H96.0477Z" fill="white"/>
<path d="M111.182 32V10.13H114.233V29.813H119.822V32H111.182Z" fill="white"/>
<path d="M124.497 32V24.278L119.772 10.13H122.607L125.955 20.687L129.249 10.13H132.111L127.413 24.278V32H124.497Z" fill="white"/>
<path d="M139.305 32.243C138.045 32.243 136.992 31.973 136.146 31.433C135.318 30.893 134.688 30.146 134.256 29.192C133.824 28.238 133.572 27.131 133.5 25.871L136.2 25.142C136.254 25.916 136.371 26.663 136.551 27.383C136.749 28.103 137.064 28.697 137.496 29.165C137.928 29.615 138.531 29.84 139.305 29.84C140.097 29.84 140.691 29.624 141.087 29.192C141.501 28.742 141.708 28.103 141.708 27.275C141.708 26.285 141.483 25.493 141.033 24.899C140.583 24.287 140.016 23.675 139.332 23.063L135.66 19.823C134.94 19.193 134.409 18.509 134.067 17.771C133.725 17.015 133.554 16.088 133.554 14.99C133.554 13.388 134.013 12.146 134.931 11.264C135.849 10.382 137.1 9.941 138.684 9.941C139.548 9.941 140.304 10.058 140.952 10.292C141.618 10.508 142.167 10.85 142.599 11.318C143.049 11.786 143.4 12.38 143.652 13.1C143.922 13.802 144.102 14.63 144.192 15.584L141.6 16.286C141.546 15.566 141.438 14.909 141.276 14.315C141.114 13.703 140.826 13.217 140.412 12.857C140.016 12.479 139.44 12.29 138.684 12.29C137.928 12.29 137.334 12.497 136.902 12.911C136.488 13.307 136.281 13.901 136.281 14.693C136.281 15.359 136.389 15.908 136.605 16.34C136.839 16.772 137.208 17.213 137.712 17.663L141.411 20.903C142.239 21.623 142.968 22.487 143.598 23.495C144.228 24.485 144.543 25.664 144.543 27.032C144.543 28.112 144.318 29.048 143.868 29.84C143.418 30.614 142.797 31.208 142.005 31.622C141.231 32.036 140.331 32.243 139.305 32.243Z" fill="white"/>
<path d="M149.313 32V12.398H145.614V10.13H155.955V12.398H152.364V32H149.313Z" fill="white"/>
<path d="M26.6406 10.0032L22.1632 9.4285C23.6491 7.12526 25.2795 4.59826 25.4178 4.38393C25.6098 4.08629 25.4606 3.54539 25.2018 3.29587C24.8976 3.00247 24.5627 3.10664 24.3688 3.40181C23.1283 5.28964 21.8543 7.22878 20.5454 9.22093L15.1613 8.52987C13.2597 5.29153 10.7131 0.955312 10.5039 0.599022C10.2434 0.15553 9.79768 -0.119345 9.38267 0.0510291C9.02241 0.198903 8.82011 0.775639 9.08477 1.21887C10.53 3.63942 11.937 5.99585 13.308 8.29187L6.92714 7.45736L3.40163 7.48395C2.51217 7.36964 1.66596 7.62012 1.01951 8.18899C0.362077 8.76742 0 9.59594 0 10.5217V32.2952C0 33.2204 0.361622 34.0528 1.01821 34.639C1.20471 34.8056 2.00222 35.5186 3.02271 35.3962C3.07662 35.3897 4.90697 35.5567 6.92714 35.3319C9.46109 35.0498 12.2937 34.7347 12.2937 34.7347V38.0074C12.2937 38.6531 12.9379 38.9344 13.4122 38.5027L18.3016 34.0521L26.6327 33.1055C27.8551 32.9666 28.8125 31.687 28.8125 30.1923V12.9403C28.8123 11.4496 27.8584 10.1595 26.6406 10.0032ZM6.43773 32.0605C6.46082 32.6949 6.53931 33.4101 6.73797 33.9741C6.16819 33.4775 5.83453 32.3042 5.57286 30.6711C5.5607 30.5953 5.34916 32.6261 5.82933 33.9777C5.25019 33.4775 4.911 32.1086 4.64503 30.4621C4.63268 30.3857 4.41763 32.6205 4.90573 33.9829C4.31703 33.4791 3.97219 32.1926 3.70173 30.5326C3.68918 30.4556 3.47049 32.7092 3.96672 34.0825C3.36814 33.5749 3.01751 32.2779 2.7425 30.6042C2.72976 30.5265 2.50736 32.7993 3.01191 34.1837C2.40325 33.6723 2.04663 32.1792 1.76695 30.4915C1.42718 31.639 1.86351 33.8971 1.79816 33.8419C1.51756 33.4705 1.29679 32.9063 1.11276 32.2043V10.8424C1.34693 9.95236 1.64014 9.28569 2.04085 8.95737C1.52777 10.3464 1.75394 12.6417 1.76695 12.5635C2.04663 10.8794 2.40325 9.29818 3.01191 8.7946C2.50736 10.1725 2.72976 12.4481 2.7425 12.3706C3.01751 10.7004 3.3682 9.40801 3.96672 8.90807C3.47049 10.275 3.68918 12.5314 3.70173 12.4546C3.97219 10.7981 4.31703 9.42329 4.90573 8.927C4.41763 10.2831 4.63274 12.5206 4.64503 12.4444C4.91106 10.8014 5.25025 9.52955 5.82933 9.03676C5.34916 10.3822 5.5607 12.6012 5.57286 12.5255C5.83453 10.8957 6.16819 9.54132 6.73797 9.05205C6.5819 9.49294 6.49996 10.028 6.46088 10.5446C6.43988 10.682 6.43214 31.9882 6.43773 32.0605ZM27.1797 15.5222V27.5946C27.1797 28.4846 27.1619 29.5224 26.1668 29.6797C25.9099 29.7204 11.2229 31.1265 11.2229 31.1265C9.91063 31.2365 8.82284 30.1451 8.82284 28.6864V14.1598C8.82284 12.7011 9.91063 11.6258 11.2229 11.7551C11.2229 11.7551 25.9095 13.3732 26.1668 13.4221C27.2856 13.6352 27.1797 14.6321 27.1797 15.5222ZM22.7373 21.794L16.8827 25.8895C16.4728 26.1763 15.9584 25.8505 15.9584 25.2991V16.9792C15.9584 16.4279 16.4728 16.1131 16.8827 16.4086L22.7373 20.6292C23.1013 20.8917 23.1013 21.5394 22.7373 21.794ZM23.9474 14.7788C23.3498 14.7788 23.3508 13.8516 23.9474 13.8516C24.545 13.8516 24.5441 14.7788 23.9474 14.7788ZM26.6273 14.594C26.8867 15.0864 26.8267 15.813 26.8017 16.3541C26.7741 16.9493 25.8468 16.9507 25.8744 16.3541C25.8924 15.9663 25.9114 15.5502 25.8383 15.1678C25.784 14.8838 25.4331 14.9019 25.1818 14.9104C24.584 14.9306 24.5867 14.0032 25.1818 13.9832C25.7031 13.9655 26.363 14.0925 26.6273 14.594Z" fill="white"/>
<path d="M22.7373 21.794L16.8827 25.8895C16.4728 26.1763 15.9584 25.8505 15.9584 25.2991V16.9792C15.9584 16.4279 16.4728 16.1131 16.8827 16.4086L22.7373 20.6292C23.1013 20.8917 23.1013 21.5394 22.7373 21.794Z" fill="#00E6BE"/>
</svg>
