<svg width="27" height="27" viewBox="0 0 27 27" fill="none" xmlns="http://www.w3.org/2000/svg">
<path d="M10.6875 10.4906V16.5094C10.6875 16.9594 10.8844 17.2875 11.2781 17.4938C11.6719 17.7 12.0563 17.6813 12.4313 17.4375L17.1 14.4563C17.4562 14.25 17.6344 13.9312 17.6344 13.5C17.6344 13.0688 17.4562 12.75 17.1 12.5437L12.4313 9.5625C12.0563 9.31875 11.6719 9.3 11.2781 9.50625C10.8844 9.7125 10.6875 10.0406 10.6875 10.4906ZM13.5 24.75C11.9438 24.75 10.4813 24.4545 9.1125 23.8635C7.74375 23.2725 6.55313 22.4711 5.54063 21.4594C4.52813 20.4469 3.72675 19.2562 3.1365 17.8875C2.54625 16.5187 2.25075 15.0562 2.25 13.5C2.25 11.9438 2.5455 10.4813 3.1365 9.1125C3.7275 7.74375 4.52888 6.55313 5.54063 5.54063C6.55313 4.52813 7.74375 3.72675 9.1125 3.1365C10.4813 2.54625 11.9438 2.25075 13.5 2.25C15.0562 2.25 16.5187 2.5455 17.8875 3.1365C19.2562 3.7275 20.4469 4.52888 21.4594 5.54063C22.4719 6.55313 23.2736 7.74375 23.8646 9.1125C24.4556 10.4813 24.7507 11.9438 24.75 13.5C24.75 15.0562 24.4545 16.5187 23.8635 17.8875C23.2725 19.2562 22.4711 20.4469 21.4594 21.4594C20.4469 22.4719 19.2562 23.2736 17.8875 23.8646C16.5187 24.4556 15.0562 24.7507 13.5 24.75ZM13.5 22.5C15.9938 22.5 18.1174 21.6236 19.8709 19.8709C21.6244 18.1181 22.5007 15.9945 22.5 13.5C22.5 11.0062 21.6236 8.88262 19.8709 7.12912C18.1181 5.37562 15.9945 4.49925 13.5 4.5C11.0062 4.5 8.88262 5.37637 7.12912 7.12912C5.37562 8.88187 4.49925 11.0055 4.5 13.5C4.5 15.9938 5.37637 18.1174 7.12912 19.8709C8.88187 21.6244 11.0055 22.5007 13.5 22.5Z" fill="white"/>
</svg>
