<svg width="21" height="21" viewBox="0 0 21 21" fill="none" xmlns="http://www.w3.org/2000/svg">
<path d="M18.8393 17.9107L14.732 13.8042C15.9225 12.375 16.5161 10.5418 16.3894 8.68608C16.2627 6.83032 15.4254 5.09485 14.0517 3.84068C12.6781 2.58652 10.8738 1.91023 9.01418 1.95249C7.15458 1.99475 5.38286 2.75232 4.06759 4.06759C2.75232 5.38286 1.99475 7.15458 1.95249 9.01418C1.91023 10.8738 2.58652 12.6781 3.84068 14.0517C5.09485 15.4254 6.83032 16.2627 8.68608 16.3894C10.5418 16.5161 12.375 15.9225 13.8042 14.732L17.9107 18.8393C17.9717 18.9003 18.0441 18.9486 18.1237 18.9816C18.2034 19.0146 18.2888 19.0316 18.375 19.0316C18.4612 19.0316 18.5466 19.0146 18.6263 18.9816C18.7059 18.9486 18.7783 18.9003 18.8393 18.8393C18.9003 18.7783 18.9486 18.7059 18.9816 18.6263C19.0146 18.5466 19.0316 18.4612 19.0316 18.375C19.0316 18.2888 19.0146 18.2034 18.9816 18.1237C18.9486 18.0441 18.9003 17.9717 18.8393 17.9107ZM3.28125 9.1875C3.28125 8.01936 3.62765 6.87744 4.27664 5.90617C4.92562 4.93489 5.84805 4.17787 6.92728 3.73084C8.00651 3.28381 9.19406 3.16685 10.3398 3.39474C11.4855 3.62264 12.5378 4.18515 13.3639 5.01115C14.1899 5.83716 14.7524 6.88955 14.9803 8.03525C15.2082 9.18095 15.0912 10.3685 14.6442 11.4477C14.1971 12.527 13.4401 13.4494 12.4688 14.0984C11.4976 14.7474 10.3556 15.0938 9.1875 15.0938C7.6216 15.092 6.12033 14.4692 5.01307 13.3619C3.90581 12.2547 3.28299 10.7534 3.28125 9.1875Z" fill="white" fill-opacity="0.35"/>
</svg>
