<svg width="19" height="19" viewBox="0 0 19 19" fill="none" xmlns="http://www.w3.org/2000/svg">
<path d="M10.2916 9.63855L12.0729 11.4198C12.218 11.5649 12.2906 11.7465 12.2906 11.9645C12.2906 12.1819 12.218 12.3698 12.0729 12.5281C11.9146 12.6865 11.7267 12.7656 11.5092 12.7656C11.2913 12.7656 11.1031 12.6865 10.9448 12.5281L9.26248 10.8458C9.07776 10.6611 8.93922 10.4566 8.84685 10.2323C8.75449 10.008 8.70831 9.7639 8.70831 9.50001V7.12501C8.70831 6.9007 8.78431 6.71255 8.93631 6.56055C9.08778 6.40908 9.27567 6.33334 9.49998 6.33334C9.72429 6.33334 9.91244 6.40908 10.0644 6.56055C10.2159 6.71255 10.2916 6.9007 10.2916 7.12501V9.63855ZM9.49998 3.16668C9.72429 3.16668 9.91244 3.24241 10.0644 3.39389C10.2159 3.54589 10.2916 3.73404 10.2916 3.95834C10.2916 4.18265 10.2159 4.3708 10.0644 4.5228C9.91244 4.67427 9.72429 4.75001 9.49998 4.75001C9.27567 4.75001 9.08778 4.67427 8.93631 4.5228C8.78431 4.3708 8.70831 4.18265 8.70831 3.95834C8.70831 3.73404 8.78431 3.54589 8.93631 3.39389C9.08778 3.24241 9.27567 3.16668 9.49998 3.16668ZM15.8333 9.50001C15.8333 9.72432 15.7573 9.9122 15.6053 10.0637C15.4538 10.2157 15.266 10.2917 15.0416 10.2917C14.8173 10.2917 14.6295 10.2157 14.478 10.0637C14.326 9.9122 14.25 9.72432 14.25 9.50001C14.25 9.2757 14.326 9.08755 14.478 8.93555C14.6295 8.78408 14.8173 8.70834 15.0416 8.70834C15.266 8.70834 15.4538 8.78408 15.6053 8.93555C15.7573 9.08755 15.8333 9.2757 15.8333 9.50001ZM9.49998 14.25C9.72429 14.25 9.91244 14.326 10.0644 14.478C10.2159 14.6295 10.2916 14.8174 10.2916 15.0417C10.2916 15.266 10.2159 15.4539 10.0644 15.6053C9.91244 15.7573 9.72429 15.8333 9.49998 15.8333C9.27567 15.8333 9.08778 15.7573 8.93631 15.6053C8.78431 15.4539 8.70831 15.266 8.70831 15.0417C8.70831 14.8174 8.78431 14.6295 8.93631 14.478C9.08778 14.326 9.27567 14.25 9.49998 14.25ZM4.74998 9.50001C4.74998 9.72432 4.67424 9.9122 4.52277 10.0637C4.37077 10.2157 4.18262 10.2917 3.95831 10.2917C3.73401 10.2917 3.54585 10.2157 3.39385 10.0637C3.24238 9.9122 3.16665 9.72432 3.16665 9.50001C3.16665 9.2757 3.24238 9.08755 3.39385 8.93555C3.54585 8.78408 3.73401 8.70834 3.95831 8.70834C4.18262 8.70834 4.37077 8.78408 4.52277 8.93555C4.67424 9.08755 4.74998 9.2757 4.74998 9.50001ZM9.49998 17.4167C8.40484 17.4167 7.37567 17.2087 6.41248 16.7928C5.44929 16.3775 4.61144 15.8136 3.89894 15.1011C3.18644 14.3886 2.62251 13.5507 2.20715 12.5875C1.79126 11.6243 1.58331 10.5951 1.58331 9.50001C1.58331 8.40487 1.79126 7.3757 2.20715 6.41251C2.62251 5.44932 3.18644 4.61147 3.89894 3.89897C4.61144 3.18647 5.44929 2.62227 6.41248 2.20639C7.37567 1.79102 8.40484 1.58334 9.49998 1.58334C10.5951 1.58334 11.6243 1.79102 12.5875 2.20639C13.5507 2.62227 14.3885 3.18647 15.101 3.89897C15.8135 4.61147 16.3775 5.44932 16.7928 6.41251C17.2087 7.3757 17.4166 8.40487 17.4166 9.50001C17.4166 10.5951 17.2087 11.6243 16.7928 12.5875C16.3775 13.5507 15.8135 14.3886 15.101 15.1011C14.3885 15.8136 13.5507 16.3775 12.5875 16.7928C11.6243 17.2087 10.5951 17.4167 9.49998 17.4167ZM9.49998 15.8333C11.268 15.8333 12.7656 15.2198 13.9927 13.9927C15.2198 12.7656 15.8333 11.2681 15.8333 9.50001C15.8333 7.73195 15.2198 6.23438 13.9927 5.0073C12.7656 3.78022 11.268 3.16668 9.49998 3.16668C7.73192 3.16668 6.23435 3.78022 5.00727 5.0073C3.78019 6.23438 3.16665 7.73195 3.16665 9.50001C3.16665 11.2681 3.78019 12.7656 5.00727 13.9927C6.23435 15.2198 7.73192 15.8333 9.49998 15.8333Z" fill="white" fill-opacity="0.68"/>
</svg>
