<svg width="18" height="18" viewBox="0 0 18 18" fill="none" xmlns="http://www.w3.org/2000/svg">
<path d="M9 0C9.82617 0 10.623 0.105469 11.3906 0.316406C12.1582 0.527344 12.876 0.829102 13.5439 1.22168C14.2119 1.61426 14.8184 2.08301 15.3633 2.62793C15.9082 3.17285 16.377 3.78223 16.7695 4.45605C17.1621 5.12988 17.4639 5.84766 17.6748 6.60938C17.8857 7.37109 17.9941 8.16797 18 9C18 9.82617 17.8945 10.623 17.6836 11.3906C17.4727 12.1582 17.1709 12.876 16.7783 13.5439C16.3857 14.2119 15.917 14.8184 15.3721 15.3633C14.8271 15.9082 14.2178 16.377 13.5439 16.7695C12.8701 17.1621 12.1523 17.4639 11.3906 17.6748C10.6289 17.8857 9.83203 17.9941 9 18C8.17383 18 7.37695 17.8945 6.60938 17.6836C5.8418 17.4727 5.12402 17.1709 4.45605 16.7783C3.78809 16.3857 3.18164 15.917 2.63672 15.3721C2.0918 14.8271 1.62305 14.2178 1.23047 13.5439C0.837891 12.8701 0.536133 12.1553 0.325195 11.3994C0.114258 10.6436 0.00585938 9.84375 0 9C0 8.17383 0.105469 7.37695 0.316406 6.60938C0.527344 5.8418 0.829102 5.12402 1.22168 4.45605C1.61426 3.78809 2.08301 3.18164 2.62793 2.63672C3.17285 2.0918 3.78223 1.62305 4.45605 1.23047C5.12988 0.837891 5.84473 0.536133 6.60059 0.325195C7.35645 0.114258 8.15625 0.00585938 9 0ZM9 16.875C9.7207 16.875 10.415 16.7812 11.083 16.5938C11.751 16.4062 12.3779 16.1426 12.9639 15.8027C13.5498 15.4629 14.083 15.0498 14.5635 14.5635C15.0439 14.0771 15.4541 13.5469 15.7939 12.9727C16.1338 12.3984 16.4004 11.7715 16.5938 11.0918C16.7871 10.4121 16.8809 9.71484 16.875 9C16.875 8.2793 16.7812 7.58496 16.5938 6.91699C16.4062 6.24902 16.1426 5.62207 15.8027 5.03613C15.4629 4.4502 15.0498 3.91699 14.5635 3.43652C14.0771 2.95605 13.5469 2.5459 12.9727 2.20605C12.3984 1.86621 11.7715 1.59961 11.0918 1.40625C10.4121 1.21289 9.71484 1.11914 9 1.125C8.2793 1.125 7.58496 1.21875 6.91699 1.40625C6.24902 1.59375 5.62207 1.85742 5.03613 2.19727C4.4502 2.53711 3.91699 2.9502 3.43652 3.43652C2.95605 3.92285 2.5459 4.45312 2.20605 5.02734C1.86621 5.60156 1.59961 6.22852 1.40625 6.9082C1.21289 7.58789 1.11914 8.28516 1.125 9C1.125 9.7207 1.21875 10.415 1.40625 11.083C1.59375 11.751 1.85742 12.3779 2.19727 12.9639C2.53711 13.5498 2.9502 14.083 3.43652 14.5635C3.92285 15.0439 4.45312 15.4541 5.02734 15.7939C5.60156 16.1338 6.22852 16.4004 6.9082 16.5938C7.58789 16.7871 8.28516 16.8809 9 16.875ZM14.2471 9.14062L14.6689 7.875H15.3281L14.5811 10.125H13.9219L13.5 8.85938L13.0781 10.125H12.4189L11.6719 7.875H12.3311L12.7529 9.14062L13.1748 7.875H13.8252L14.2471 9.14062ZM10.1689 7.875H10.8281L10.0811 10.125H9.42188L9 8.85938L8.57812 10.125H7.91895L7.17188 7.875H7.83105L8.25293 9.14062L8.6748 7.875H9.3252L9.74707 9.14062L10.1689 7.875ZM5.66895 7.875H6.32812L5.58105 10.125H4.92188L4.5 8.85938L4.07812 10.125H3.41895L2.67188 7.875H3.33105L3.75293 9.14062L4.1748 7.875H4.8252L5.24707 9.14062L5.66895 7.875Z" fill="white"/>
</svg>
